<svg xmlns="http://www.w3.org/2000/svg" version="1.1" xmlns:xlink="http://www.w3.org/1999/xlink" xmlns:svgjs="http://svgjs.dev/svgjs" width="1440" height="560" preserveAspectRatio="none" viewBox="0 0 1440 560">
    <g mask="url(&quot;#SvgjsMask1018&quot;)" fill="none">
        <rect width="1440" height="560" x="0" y="0" fill="rgba(204, 204, 204, 1)"></rect>
        <path d="M0,454.894C88.449,458.251,174.568,434.779,252.768,393.315C336.042,349.161,428.317,298.933,460.927,210.498C493.174,123.046,435.759,31.481,420.071,-60.397C404.889,-149.311,434.323,-257.339,370.212,-320.79C305.823,-384.516,196.94,-350.095,108.328,-368.93C28.35,-385.93,-48.532,-454.743,-125.106,-426.072C-201.963,-397.295,-210.415,-290.913,-264.618,-229.292C-319.42,-166.99,-426.261,-144.911,-443.762,-63.803C-461.16,16.83,-383.091,84.269,-348.425,159.12C-313.984,233.485,-303.208,321.547,-240.73,374.583C-174.908,430.458,-86.278,451.619,0,454.894" fill="#c2c2c2"></path>
        <path d="M1440 1028.642C1526.283 1029.901 1572.3319999999999 925.3720000000001 1646.88 881.9110000000001 1726.2649999999999 835.631 1832.135 836.614 1890.76 765.855 1955.049 688.259 1992.114 582.422 1977.6309999999999 482.7 1963.153 383.01800000000003 1898.3029999999999 290.933 1813.818 236.08499999999998 1736.531 185.91000000000003 1636.177 216.176 1545.14 201.926 1468.869 189.98700000000002 1398.688 147.98399999999998 1322.299 159.147 1239.631 171.22699999999998 1167.749 215.757 1101.565 266.744 1022.373 327.752 919.515 384.216 902.317 482.693 885.121 581.163 951.8 677.242 1016.5830000000001 753.3679999999999 1072.186 818.7049999999999 1165.035 829.1669999999999 1236.964 875.9300000000001 1309.432 923.043 1353.573 1027.3809999999999 1440 1028.642" fill="#d6d6d6"></path>
    </g>
    <defs>
        <mask id="SvgjsMask1018">
            <rect width="1440" height="560" fill="#ffffff"></rect>
        </mask>
    </defs>
</svg>